<svg width="24" height="24" viewBox="0 0 24 24" fill="none" xmlns="http://www.w3.org/2000/svg">
<path d="M8.80843 10.0625C9.29474 10.9974 9.95768 11.8737 10.7972 12.6487C11.6368 13.4237 12.5861 14.0356 13.599 14.4845C13.6861 14.5231 13.7297 14.5424 13.7848 14.5573C13.9807 14.61 14.2212 14.5721 14.3871 14.4625C14.4338 14.4316 14.4738 14.3947 14.5536 14.321C14.7979 14.0955 14.92 13.9828 15.0429 13.9091C15.506 13.6311 16.1031 13.6311 16.5663 13.9091C16.6891 13.9828 16.8113 14.0955 17.0556 14.321L17.1917 14.4467C17.563 14.7895 17.7487 14.9609 17.8496 15.1449C18.0501 15.511 18.0501 15.9433 17.8496 16.3093C17.7487 16.4934 17.563 16.6648 17.1917 17.0076L17.0816 17.1092C16.7115 17.4508 16.5265 17.6216 16.2749 17.7521C15.9958 17.8968 15.5622 18.0009 15.2421 18C14.9535 17.9992 14.7563 17.9475 14.3619 17.8442C12.2424 17.2889 10.2425 16.2412 8.57393 14.701C6.9054 13.1608 5.77035 11.3147 5.16877 9.35821C5.05683 8.99415 5.00086 8.81213 5.00001 8.54579C4.99905 8.25025 5.1118 7.85005 5.26861 7.59238C5.40992 7.36017 5.59495 7.18937 5.96501 6.84778L6.07515 6.74611C6.44648 6.40335 6.63214 6.23196 6.83155 6.13886C7.22811 5.95371 7.69644 5.95371 8.09301 6.13886C8.29241 6.23196 8.47807 6.40334 8.8494 6.74611L8.98556 6.8718C9.22984 7.09728 9.35198 7.21003 9.43183 7.3234C9.73297 7.75094 9.73297 8.30212 9.43183 8.72967C9.35198 8.84304 9.22984 8.95578 8.98556 9.18127C8.90569 9.255 8.86575 9.29186 8.83232 9.33495C8.71353 9.48809 8.67252 9.71013 8.72962 9.89095C8.74569 9.94183 8.7666 9.98204 8.80843 10.0625Z" stroke="white" style="stroke:white;stroke-opacity:1;" stroke-width="1.2" stroke-linecap="round" stroke-linejoin="round"/>
</svg>
