<svg width="24" height="24" viewBox="0 0 24 24" fill="none" xmlns="http://www.w3.org/2000/svg">
<path d="M21.9277 16.5581C21.7898 16.1802 21.5242 15.9759 21.2229 15.8125C21.1667 15.7818 21.1157 15.7512 21.0697 15.7308C20.9778 15.6848 20.8858 15.6388 20.7939 15.5929C19.8542 15.0924 19.1188 14.4693 18.6131 13.7237C18.4701 13.5143 18.3425 13.2896 18.2403 13.0597C18.1944 12.9372 18.1995 12.8657 18.2301 12.7993C18.2608 12.7482 18.3016 12.7073 18.3527 12.6716C18.5161 12.5643 18.6795 12.4571 18.7919 12.3856C18.9911 12.2528 19.1545 12.1507 19.2567 12.0792C19.6397 11.8085 19.9104 11.5225 20.0789 11.2007C20.3189 10.7513 20.3496 10.2253 20.1657 9.7503C19.9104 9.07615 19.2771 8.66247 18.5059 8.66247C18.3425 8.66247 18.1841 8.67779 18.0207 8.71354C17.9799 8.72376 17.9339 8.73397 17.893 8.74419C17.8981 8.28454 17.8879 7.79936 17.8471 7.31929C17.7041 5.63903 17.1116 4.7606 16.4988 4.06092C16.1055 3.62171 15.6459 3.24888 15.1301 2.95778C14.2006 2.42663 13.1434 2.15595 11.9943 2.15595C10.8452 2.15595 9.79309 2.42663 8.86359 2.95778C8.34776 3.24888 7.88812 3.62171 7.49487 4.06092C6.88201 4.7606 6.29469 5.64414 6.14658 7.31929C6.10572 7.79936 6.09551 8.28454 6.10061 8.74419C6.05976 8.73397 6.0189 8.72376 5.97294 8.71354C5.81461 8.67779 5.65119 8.66247 5.49286 8.66247C4.72168 8.66247 4.0884 9.08126 3.83304 9.7503C3.64918 10.2253 3.67982 10.7513 3.91986 11.2007C4.0884 11.5225 4.35907 11.8085 4.74211 12.0792C4.84425 12.1507 5.00258 12.2528 5.20686 12.3856C5.31411 12.4571 5.47243 12.5592 5.63076 12.6614C5.68694 12.6971 5.7329 12.7431 5.76865 12.7993C5.79929 12.8657 5.8044 12.9372 5.75333 13.0699C5.65119 13.2947 5.52861 13.5143 5.38561 13.7186C4.89022 14.4438 4.17522 15.0617 3.26614 15.5571C2.78607 15.8125 2.28557 15.981 2.07107 16.5581C1.91275 16.9922 2.01489 17.4825 2.41835 17.9013C2.56646 18.0545 2.74011 18.1873 2.92907 18.2895C3.32232 18.504 3.74111 18.6725 4.18032 18.79C4.27225 18.8155 4.35397 18.8513 4.43057 18.9023C4.57868 19.03 4.55825 19.2241 4.75233 19.5101C4.84936 19.6582 4.97704 19.7859 5.12004 19.888C5.53372 20.174 5.99847 20.1893 6.48876 20.2098C6.93308 20.2251 7.43358 20.2455 8.01069 20.4345C8.25073 20.5111 8.49587 20.6643 8.78187 20.843C9.47134 21.2669 10.4111 21.844 11.9892 21.844C13.5673 21.844 14.5121 21.2618 15.2067 20.8379C15.4927 20.6643 15.7378 20.5111 15.9676 20.4345C16.5396 20.2455 17.0453 20.2251 17.4896 20.2098C17.9799 20.1893 18.4446 20.174 18.8583 19.888C19.0319 19.7654 19.1749 19.6122 19.2771 19.4284C19.4201 19.1883 19.415 19.0198 19.5478 18.9023C19.6193 18.8513 19.701 18.8155 19.7827 18.7951C20.2219 18.6776 20.6509 18.5091 21.0493 18.2895C21.2484 18.1822 21.4323 18.0392 21.5855 17.8707L21.5906 17.8656C21.989 17.457 22.086 16.9769 21.9277 16.5581ZM20.5283 17.3089C19.6754 17.7787 19.1034 17.7277 18.6642 18.0137C18.2863 18.2537 18.511 18.7746 18.2403 18.9636C17.9033 19.1934 16.9125 18.9483 15.6357 19.3722C14.5785 19.7195 13.9095 20.7256 12.0096 20.7256C10.1097 20.7256 9.45602 19.7246 8.38351 19.3722C7.10673 18.9483 6.11594 19.1985 5.77886 18.9636C5.50819 18.7746 5.72779 18.2537 5.35497 18.0137C4.91065 17.7277 4.34375 17.7787 3.49086 17.3089C2.94439 17.0076 3.25593 16.8237 3.43468 16.7369C6.52962 15.2405 7.02501 12.9269 7.04544 12.7533C7.07097 12.5439 7.10162 12.3805 6.8718 12.1711C6.65219 11.9668 5.67161 11.359 5.39583 11.1701C4.9464 10.8534 4.74722 10.5419 4.89533 10.1538C4.99747 9.88819 5.24772 9.78605 5.50818 9.78605C5.5899 9.78605 5.67161 9.79626 5.75333 9.81158C6.24872 9.91883 6.7288 10.164 7.00458 10.2355C7.04033 10.2457 7.07098 10.2508 7.10673 10.2508C7.25483 10.2508 7.3059 10.1742 7.29569 10.0057C7.26505 9.46429 7.18844 8.41222 7.27526 7.42654C7.39273 6.07314 7.82683 5.399 8.34776 4.80657C8.59801 4.52057 9.76755 3.28463 12.0096 3.28463C14.2516 3.28463 15.4212 4.51546 15.6714 4.80146C16.1924 5.39389 16.6265 6.06803 16.7439 7.42143C16.8308 8.40711 16.7541 9.45919 16.7184 10.0005C16.7082 10.1793 16.7593 10.2457 16.9074 10.2457C16.9431 10.2457 16.9738 10.2406 17.0095 10.2304C17.2853 10.164 17.7654 9.91372 18.2608 9.80647C18.3425 9.78605 18.4242 9.78094 18.5059 9.78094C18.7664 9.78094 19.0166 9.88308 19.1188 10.1487C19.2669 10.5368 19.0677 10.8483 18.6183 11.165C18.3476 11.3539 17.367 11.9617 17.1423 12.166C16.9125 12.3754 16.9431 12.5388 16.9686 12.7482C16.9891 12.9218 17.4845 15.2354 20.5794 16.7318C20.7633 16.8186 21.0697 17.0076 20.5283 17.3089Z" fill="black" style="fill:black;fill-opacity:1;"/>
</svg>
